<svg xmlns="http://www.w3.org/2000/svg" viewBox="0 0 64 64"><defs></defs><g id="Layer_2" data-name="Layer 2"><g id="Camada_1" data-name="Camada 1"><rect class="cls-1" width="64" height="64" rx="32"></rect><path class="cls-2" d="M23.3,39.9l-2.68,2.68v-.66a.59.59,0,0,0-1.17,0v2a.62.62,0,0,0,.6.6h2a.58.58,0,0,0,.58-.58h0a.58.58,0,0,0-.58-.59h-.62l2.66-2.66a.58.58,0,0,0-.82-.82Z"></path><path class="cls-2" d="M39.88,24.1a.57.57,0,0,0,.82,0l2.68-2.68v.66a.59.59,0,0,0,1.17,0v-2a.62.62,0,0,0-.6-.6h-2a.58.58,0,0,0-.58.58h0a.58.58,0,0,0,.58.59h.62l-2.66,2.66a.57.57,0,0,0,0,.82Z"></path><path class="cls-2" d="M32.43,14.68a.63.63,0,0,0-.86,0l-1.43,1.43a.59.59,0,0,0,.83.83l.44-.44v3.77a.58.58,0,1,0,1.16,0v-3.8l.46.47a.59.59,0,0,0,.83-.83Z"></path><path class="cls-2" d="M33,47.06l-.44.44V43.73a.58.58,0,1,0-1.16,0v3.8L31,47.06a.59.59,0,0,0-.83.83l1.43,1.43a.63.63,0,0,0,.86,0l1.43-1.43a.59.59,0,0,0-.83-.83Z"></path><path class="cls-2" d="M44,41.34a.58.58,0,0,0-.59.58v.62l-2.66-2.66a.58.58,0,0,0-.82.82l2.68,2.68h-.66a.58.58,0,0,0-.58.59h0a.58.58,0,0,0,.58.58h2a.62.62,0,0,0,.6-.6v-2A.58.58,0,0,0,44,41.34Z"></path><path class="cls-2" d="M20,22.66a.58.58,0,0,0,.59-.58v-.62l2.66,2.66a.58.58,0,0,0,.82-.82l-2.68-2.68h.66a.58.58,0,0,0,.58-.59h0a.58.58,0,0,0-.58-.58h-2a.62.62,0,0,0-.6.6v2A.58.58,0,0,0,20,22.66Z"></path><path class="cls-2" d="M49.32,31.57l-1.43-1.43a.59.59,0,0,0-.83.83l.44.44H43.73a.58.58,0,0,0-.58.58h0a.58.58,0,0,0,.58.58h3.8l-.47.46a.59.59,0,0,0,.83.83l1.43-1.43a.63.63,0,0,0,0-.86Z"></path><path class="cls-2" d="M16.5,32.59h3.77a.58.58,0,0,0,0-1.16h-3.8l.47-.46a.6.6,0,0,0,0-.83h0a.6.6,0,0,0-.83,0l-1.43,1.43a.63.63,0,0,0,0,.86l1.43,1.43a.6.6,0,0,0,.83,0h0a.6.6,0,0,0,0-.83Z"></path></g></g></svg>