<svg xmlns="http://www.w3.org/2000/svg" viewBox="0 0 710.55 710.55"><defs></defs><g id="Layer_2" data-name="Layer 2"><g id="Camada_1" data-name="Camada 1"><path class="cls-1" d="M100.38,153.72V112.63a12.58,12.58,0,0,1,12.25-12.25h41.09a11.85,11.85,0,0,1,0,23.7H140.35l54.56,54.56c.17.17.33.36.49.54q-8.68,7.92-16.56,16.66c-.2-.17-.41-.35-.6-.54l-54.16-54.16v12.58a11.85,11.85,0,1,1-23.7,0ZM334.31,49.27l8.9-8.89V117c0,.15,0,.29,0,.44q6.19-.32,12.47-.32c3.71,0,7.39.09,11.06.26,0-.13,0-.25,0-.38V39.82l9.46,9.45A11.84,11.84,0,0,0,393,32.52L363.93,3.46a12.56,12.56,0,0,0-17.31,0L317.56,32.52a11.84,11.84,0,0,0,16.75,16.75ZM515.12,178.39q8.75,7.89,16.69,16.61l.1-.09,54.56-54.56v13.37a11.85,11.85,0,1,0,23.7,0V112.63a12.58,12.58,0,0,0-12.24-12.25h-41.1a11.85,11.85,0,0,0,0,23.7h12.58l-54.16,54.16Zm-474.74,189H117c.34,0,.68,0,1,0q-.3-6.06-.3-12.19c0-3.78.1-7.54.27-11.28-.33,0-.66-.05-1-.05H39.82l9.45-9.46a11.84,11.84,0,0,0-16.75-16.75L3.46,346.62a12.56,12.56,0,0,0,0,17.31L32.52,393a11.84,11.84,0,0,0,16.75-16.75Zm666.71-20.72L678,317.56a11.84,11.84,0,0,0-16.75,16.75l8.9,8.9H593.4c.19,3.94.3,7.89.3,11.88s-.1,7.8-.29,11.67h77.33l-9.46,9.46A11.84,11.84,0,0,0,678,393l29.06-29.06a12.56,12.56,0,0,0,0-17.31ZM598.32,545a11.86,11.86,0,0,0-11.85,11.85v12.58l-54.16-54.16L532,515q-7.9,8.71-16.64,16.62c.09.11.18.22.28.32l54.57,54.56H556.83A11.86,11.86,0,0,0,545,598.32h0a11.86,11.86,0,0,0,11.85,11.85h41.1a12.58,12.58,0,0,0,12.24-12.24v-41.1A11.86,11.86,0,0,0,598.32,545ZM376.24,661.28l-8.9,8.9v-76.6c0-.26,0-.52,0-.77q-5.76.29-11.6.29c-4,0-7.95-.11-11.89-.3,0,.26,0,.51,0,.78v77.16l-9.46-9.46A11.84,11.84,0,0,0,317.56,678l29.06,29.06a12.56,12.56,0,0,0,17.31,0L393,678a11.84,11.84,0,0,0-16.75-16.75ZM196,531.55q-8.7-7.87-16.6-16.58a9.45,9.45,0,0,0-.75.67l-54.56,54.57V556.83a11.85,11.85,0,1,0-23.7,0v41.1a12.58,12.58,0,0,0,12.25,12.24h41.09a11.86,11.86,0,0,0,11.85-11.85h0a11.86,11.86,0,0,0-11.85-11.85H141.14l54.16-54.16A9.86,9.86,0,0,0,196,531.55Z"></path></g></g></svg>