<svg xmlns="http://www.w3.org/2000/svg" viewBox="0 0 710.55 710.55"><defs><style>.cls-1{fill:#16465D}</style></defs><g id="Layer_2" data-name="Layer 2"><g id="Camada_1" data-name="Camada 1"><path class="cls-1" d="M178.64,515.64l-54.56,54.57V556.83a11.85,11.85,0,1,0-23.7,0v41.1a12.58,12.58,0,0,0,12.25,12.24h41.09a11.86,11.86,0,0,0,11.85-11.85h0a11.86,11.86,0,0,0-11.85-11.85H141.14l54.16-54.16a11.78,11.78,0,1,0-16.66-16.67Z"></path><path class="cls-1" d="M515.25,194.91a11.78,11.78,0,0,0,16.66,0l54.56-54.56v13.37a11.85,11.85,0,1,0,23.7,0V112.63a12.58,12.58,0,0,0-12.24-12.25h-41.1A11.86,11.86,0,0,0,545,112.23h0a11.86,11.86,0,0,0,11.85,11.85h12.58l-54.16,54.16a11.79,11.79,0,0,0,0,16.67Z"></path><path class="cls-1" d="M363.93,3.46a12.56,12.56,0,0,0-17.31,0L317.56,32.52a11.84,11.84,0,0,0,16.75,16.75l8.9-8.89V117a11.79,11.79,0,0,0,23.57,0V39.82l9.46,9.45A11.84,11.84,0,0,0,393,32.52Z"></path><path class="cls-1" d="M363.93,707.09,393,678a11.84,11.84,0,0,0-16.75-16.75l-8.9,8.9v-76.6a11.79,11.79,0,1,0-23.57,0v77.16l-9.46-9.46A11.84,11.84,0,0,0,317.56,678l29.06,29.06a12.56,12.56,0,0,0,17.31,0"></path><path class="cls-1" d="M598.32,545a11.86,11.86,0,0,0-11.85,11.85v12.58l-54.16-54.16a11.78,11.78,0,1,0-16.67,16.66l54.57,54.56H556.83A11.86,11.86,0,0,0,545,598.32h0a11.86,11.86,0,0,0,11.85,11.85h41.1a12.58,12.58,0,0,0,12.24-12.24v-41.1A11.86,11.86,0,0,0,598.32,545Z"></path><path class="cls-1" d="M112.23,165.57a11.86,11.86,0,0,0,11.85-11.85V141.14l54.16,54.16a11.78,11.78,0,0,0,16.67-16.66l-54.56-54.56h13.37a11.86,11.86,0,0,0,11.85-11.85h0a11.86,11.86,0,0,0-11.85-11.85H112.63a12.58,12.58,0,0,0-12.25,12.25v41.09A11.86,11.86,0,0,0,112.23,165.57Z"></path><path class="cls-1" d="M707.09,346.62,678,317.56a11.84,11.84,0,0,0-16.75,16.75l8.9,8.9h-76.6A11.79,11.79,0,0,0,581.79,355h0a11.79,11.79,0,0,0,11.79,11.78h77.16l-9.46,9.46A11.84,11.84,0,0,0,678,393l29.06-29.06a12.56,12.56,0,0,0,0-17.31Z"></path><path class="cls-1" d="M40.38,367.34H117a11.79,11.79,0,0,0,0-23.57H39.82l9.45-9.46a11.84,11.84,0,0,0,0-16.75h0a11.84,11.84,0,0,0-16.75,0L3.46,346.62a12.56,12.56,0,0,0,0,17.31L32.52,393a11.84,11.84,0,0,0,16.75,0h0a11.84,11.84,0,0,0,0-16.75Z"></path></g></g></svg>