<svg xmlns="http://www.w3.org/2000/svg" viewBox="0 0 1420.86 375.47"><defs></defs><g id="Layer_2" data-name="Layer 2"><g id="Camada_1" data-name="Camada 1"><path class="cls-1" d="M442.89.06h0a34.37,34.37,0,0,0-34.37,34.37V273.69L258.66,167.08a34.22,34.22,0,0,0-17.25-6.23l-.87-.06c-.64,0-1.27,0-1.91,0s-1.27,0-1.91,0l-.86.06a34.29,34.29,0,0,0-17.26,6.23L68.74,273.69V34.43A34.37,34.37,0,0,0,34.37.06h0A34.37,34.37,0,0,0,0,34.43V339.84a34.42,34.42,0,0,0,.87,7.59c.12.55.28,1.1.42,1.65.11.39.2.78.32,1.17a34.24,34.24,0,0,0,4.86,9.92h0a34.36,34.36,0,0,0,47.93,8.08L238.63,237.19,422.87,368.25a34.36,34.36,0,0,0,47.93-8.08h0a34.21,34.21,0,0,0,4.85-9.92c.13-.39.22-.79.32-1.18.15-.54.31-1.09.43-1.64a34.42,34.42,0,0,0,.87-7.59V34.43A34.37,34.37,0,0,0,442.89.06Z"></path><path class="cls-1" d="M1420,27.25c-.12-.55-.28-1.09-.42-1.64-.11-.39-.2-.79-.32-1.17a34.55,34.55,0,0,0-4.86-9.93h0a34.38,34.38,0,0,0-47.93-8.08L1182.22,137.49,998,6.43a34.38,34.38,0,0,0-47.93,8.08h0a34.55,34.55,0,0,0-4.86,9.93c-.12.38-.21.77-.32,1.16-.14.55-.3,1.1-.42,1.65a34.56,34.56,0,0,0-.87,7.59V340.25A34.37,34.37,0,0,0,978,374.62h0a34.37,34.37,0,0,0,34.37-34.37V101L1162.2,207.6a34,34,0,0,0,17.25,6.23l.86.06c.64,0,1.28.05,1.91.05s1.28,0,1.92-.05l.86-.06a34,34,0,0,0,17.25-6.23L1352.12,101V340.25a34.37,34.37,0,0,0,34.37,34.37h0a34.37,34.37,0,0,0,34.37-34.37V34.84A34.49,34.49,0,0,0,1420,27.25Z"></path><path class="cls-1" d="M862.74,0H557.33A34.37,34.37,0,0,0,523,34.37h0a34.37,34.37,0,0,0,34.37,34.37H676.84V341.1a34.37,34.37,0,1,0,68.74,0V68.74H862.74a34.37,34.37,0,0,0,34.37-34.37h0A34.37,34.37,0,0,0,862.74,0Z"></path></g></g></svg>